<mxfile host="app.diagrams.net" agent="Mozilla/5.0 (Windows NT 10.0; Win64; x64) AppleWebKit/537.36 (KHTML, like Gecko) Chrome/134.0.0.0 Safari/537.36" version="26.1.1">
  <diagram id="C5RBs43oDa-KdzZeNtuy" name="Page-1">
    <mxGraphModel dx="666" dy="3919" grid="1" gridSize="10" guides="1" tooltips="1" connect="1" arrows="1" fold="1" page="1" pageScale="1" pageWidth="827" pageHeight="1169" math="0" shadow="0">
      <root>
        <mxCell id="WIyWlLk6GJQsqaUBKTNV-0" />
        <mxCell id="WIyWlLk6GJQsqaUBKTNV-1" parent="WIyWlLk6GJQsqaUBKTNV-0" />
        <mxCell id="zkfFHV4jXpPFQw0GAbJ--0" value="Carro" style="swimlane;fontStyle=2;align=center;verticalAlign=top;childLayout=stackLayout;horizontal=1;startSize=26;horizontalStack=0;resizeParent=1;resizeLast=0;collapsible=1;marginBottom=0;rounded=0;shadow=0;strokeWidth=1;" parent="WIyWlLk6GJQsqaUBKTNV-1" vertex="1">
          <mxGeometry x="30" y="-2500" width="212" height="232" as="geometry">
            <mxRectangle x="230" y="140" width="160" height="26" as="alternateBounds" />
          </mxGeometry>
        </mxCell>
        <mxCell id="zkfFHV4jXpPFQw0GAbJ--1" value="- nome: String" style="text;align=left;verticalAlign=top;spacingLeft=4;spacingRight=4;overflow=hidden;rotatable=0;points=[[0,0.5],[1,0.5]];portConstraint=eastwest;" parent="zkfFHV4jXpPFQw0GAbJ--0" vertex="1">
          <mxGeometry y="26" width="212" height="26" as="geometry" />
        </mxCell>
        <mxCell id="zkfFHV4jXpPFQw0GAbJ--2" value="- cor : String" style="text;align=left;verticalAlign=top;spacingLeft=4;spacingRight=4;overflow=hidden;rotatable=0;points=[[0,0.5],[1,0.5]];portConstraint=eastwest;rounded=0;shadow=0;html=0;" parent="zkfFHV4jXpPFQw0GAbJ--0" vertex="1">
          <mxGeometry y="52" width="212" height="26" as="geometry" />
        </mxCell>
        <mxCell id="zkfFHV4jXpPFQw0GAbJ--3" value="- anoFabricacao: int" style="text;align=left;verticalAlign=top;spacingLeft=4;spacingRight=4;overflow=hidden;rotatable=0;points=[[0,0.5],[1,0.5]];portConstraint=eastwest;rounded=0;shadow=0;html=0;" parent="zkfFHV4jXpPFQw0GAbJ--0" vertex="1">
          <mxGeometry y="78" width="212" height="34" as="geometry" />
        </mxCell>
        <mxCell id="XZWh5QKXfQ9_2ZvwQQ3--0" value="- velocidade : double" style="text;align=left;verticalAlign=top;spacingLeft=4;spacingRight=4;overflow=hidden;rotatable=0;points=[[0,0.5],[1,0.5]];portConstraint=eastwest;rounded=0;shadow=0;html=0;" parent="zkfFHV4jXpPFQw0GAbJ--0" vertex="1">
          <mxGeometry y="112" width="212" height="34" as="geometry" />
        </mxCell>
        <mxCell id="zkfFHV4jXpPFQw0GAbJ--4" value="" style="line;html=1;strokeWidth=1;align=left;verticalAlign=middle;spacingTop=-1;spacingLeft=3;spacingRight=3;rotatable=0;labelPosition=right;points=[];portConstraint=eastwest;" parent="zkfFHV4jXpPFQw0GAbJ--0" vertex="1">
          <mxGeometry y="146" width="212" height="8" as="geometry" />
        </mxCell>
        <mxCell id="zkfFHV4jXpPFQw0GAbJ--5" value="+ ligarCarro() : void" style="text;align=left;verticalAlign=top;spacingLeft=4;spacingRight=4;overflow=hidden;rotatable=0;points=[[0,0.5],[1,0.5]];portConstraint=eastwest;" parent="zkfFHV4jXpPFQw0GAbJ--0" vertex="1">
          <mxGeometry y="154" width="212" height="26" as="geometry" />
        </mxCell>
        <mxCell id="XZWh5QKXfQ9_2ZvwQQ3--1" value="+ acelerarCarro(velocidade) : double" style="text;align=left;verticalAlign=top;spacingLeft=4;spacingRight=4;overflow=hidden;rotatable=0;points=[[0,0.5],[1,0.5]];portConstraint=eastwest;" parent="zkfFHV4jXpPFQw0GAbJ--0" vertex="1">
          <mxGeometry y="180" width="212" height="26" as="geometry" />
        </mxCell>
        <mxCell id="XZWh5QKXfQ9_2ZvwQQ3--2" value="+ freiarCarro(velocidade) : double" style="text;align=left;verticalAlign=top;spacingLeft=4;spacingRight=4;overflow=hidden;rotatable=0;points=[[0,0.5],[1,0.5]];portConstraint=eastwest;" parent="zkfFHV4jXpPFQw0GAbJ--0" vertex="1">
          <mxGeometry y="206" width="212" height="26" as="geometry" />
        </mxCell>
        <mxCell id="XZWh5QKXfQ9_2ZvwQQ3--3" value="Cachorro" style="swimlane;fontStyle=2;align=center;verticalAlign=top;childLayout=stackLayout;horizontal=1;startSize=26;horizontalStack=0;resizeParent=1;resizeLast=0;collapsible=1;marginBottom=0;rounded=0;shadow=0;strokeWidth=1;" parent="WIyWlLk6GJQsqaUBKTNV-1" vertex="1">
          <mxGeometry x="262" y="-2500" width="120" height="230" as="geometry">
            <mxRectangle x="230" y="140" width="160" height="26" as="alternateBounds" />
          </mxGeometry>
        </mxCell>
        <mxCell id="XZWh5QKXfQ9_2ZvwQQ3--4" value="- nome: String" style="text;align=left;verticalAlign=top;spacingLeft=4;spacingRight=4;overflow=hidden;rotatable=0;points=[[0,0.5],[1,0.5]];portConstraint=eastwest;" parent="XZWh5QKXfQ9_2ZvwQQ3--3" vertex="1">
          <mxGeometry y="26" width="120" height="26" as="geometry" />
        </mxCell>
        <mxCell id="XZWh5QKXfQ9_2ZvwQQ3--7" value="- tutor : String" style="text;align=left;verticalAlign=top;spacingLeft=4;spacingRight=4;overflow=hidden;rotatable=0;points=[[0,0.5],[1,0.5]];portConstraint=eastwest;rounded=0;shadow=0;html=0;" parent="XZWh5QKXfQ9_2ZvwQQ3--3" vertex="1">
          <mxGeometry y="52" width="120" height="34" as="geometry" />
        </mxCell>
        <mxCell id="XZWh5QKXfQ9_2ZvwQQ3--5" value="- cor : String" style="text;align=left;verticalAlign=top;spacingLeft=4;spacingRight=4;overflow=hidden;rotatable=0;points=[[0,0.5],[1,0.5]];portConstraint=eastwest;rounded=0;shadow=0;html=0;" parent="XZWh5QKXfQ9_2ZvwQQ3--3" vertex="1">
          <mxGeometry y="86" width="120" height="26" as="geometry" />
        </mxCell>
        <mxCell id="XZWh5QKXfQ9_2ZvwQQ3--6" value="- raca: String" style="text;align=left;verticalAlign=top;spacingLeft=4;spacingRight=4;overflow=hidden;rotatable=0;points=[[0,0.5],[1,0.5]];portConstraint=eastwest;rounded=0;shadow=0;html=0;" parent="XZWh5QKXfQ9_2ZvwQQ3--3" vertex="1">
          <mxGeometry y="112" width="120" height="34" as="geometry" />
        </mxCell>
        <mxCell id="XZWh5QKXfQ9_2ZvwQQ3--8" value="" style="line;html=1;strokeWidth=1;align=left;verticalAlign=middle;spacingTop=-1;spacingLeft=3;spacingRight=3;rotatable=0;labelPosition=right;points=[];portConstraint=eastwest;" parent="XZWh5QKXfQ9_2ZvwQQ3--3" vertex="1">
          <mxGeometry y="146" width="120" height="8" as="geometry" />
        </mxCell>
        <mxCell id="XZWh5QKXfQ9_2ZvwQQ3--9" value="+ latir() : void" style="text;align=left;verticalAlign=top;spacingLeft=4;spacingRight=4;overflow=hidden;rotatable=0;points=[[0,0.5],[1,0.5]];portConstraint=eastwest;" parent="XZWh5QKXfQ9_2ZvwQQ3--3" vertex="1">
          <mxGeometry y="154" width="120" height="14" as="geometry" />
        </mxCell>
        <mxCell id="XZWh5QKXfQ9_2ZvwQQ3--10" value="+ passear() : void" style="text;align=left;verticalAlign=top;spacingLeft=4;spacingRight=4;overflow=hidden;rotatable=0;points=[[0,0.5],[1,0.5]];portConstraint=eastwest;" parent="XZWh5QKXfQ9_2ZvwQQ3--3" vertex="1">
          <mxGeometry y="168" width="120" height="26" as="geometry" />
        </mxCell>
        <mxCell id="XZWh5QKXfQ9_2ZvwQQ3--12" value="Casa" style="swimlane;fontStyle=2;align=center;verticalAlign=top;childLayout=stackLayout;horizontal=1;startSize=26;horizontalStack=0;resizeParent=1;resizeLast=0;collapsible=1;marginBottom=0;rounded=0;shadow=0;strokeWidth=1;" parent="WIyWlLk6GJQsqaUBKTNV-1" vertex="1">
          <mxGeometry x="392" y="-2500" width="130" height="232" as="geometry">
            <mxRectangle x="230" y="140" width="160" height="26" as="alternateBounds" />
          </mxGeometry>
        </mxCell>
        <mxCell id="XZWh5QKXfQ9_2ZvwQQ3--21" value="- proprietario : String" style="text;align=left;verticalAlign=top;spacingLeft=4;spacingRight=4;overflow=hidden;rotatable=0;points=[[0,0.5],[1,0.5]];portConstraint=eastwest;rounded=0;shadow=0;html=0;" parent="XZWh5QKXfQ9_2ZvwQQ3--12" vertex="1">
          <mxGeometry y="26" width="130" height="26" as="geometry" />
        </mxCell>
        <mxCell id="XZWh5QKXfQ9_2ZvwQQ3--14" value="- cor : String" style="text;align=left;verticalAlign=top;spacingLeft=4;spacingRight=4;overflow=hidden;rotatable=0;points=[[0,0.5],[1,0.5]];portConstraint=eastwest;rounded=0;shadow=0;html=0;" parent="XZWh5QKXfQ9_2ZvwQQ3--12" vertex="1">
          <mxGeometry y="52" width="130" height="26" as="geometry" />
        </mxCell>
        <mxCell id="XZWh5QKXfQ9_2ZvwQQ3--15" value="- area : double" style="text;align=left;verticalAlign=top;spacingLeft=4;spacingRight=4;overflow=hidden;rotatable=0;points=[[0,0.5],[1,0.5]];portConstraint=eastwest;rounded=0;shadow=0;html=0;" parent="XZWh5QKXfQ9_2ZvwQQ3--12" vertex="1">
          <mxGeometry y="78" width="130" height="34" as="geometry" />
        </mxCell>
        <mxCell id="XZWh5QKXfQ9_2ZvwQQ3--16" value="- qtdeQuartos: int" style="text;align=left;verticalAlign=top;spacingLeft=4;spacingRight=4;overflow=hidden;rotatable=0;points=[[0,0.5],[1,0.5]];portConstraint=eastwest;rounded=0;shadow=0;html=0;" parent="XZWh5QKXfQ9_2ZvwQQ3--12" vertex="1">
          <mxGeometry y="112" width="130" height="34" as="geometry" />
        </mxCell>
        <mxCell id="XZWh5QKXfQ9_2ZvwQQ3--17" value="" style="line;html=1;strokeWidth=1;align=left;verticalAlign=middle;spacingTop=-1;spacingLeft=3;spacingRight=3;rotatable=0;labelPosition=right;points=[];portConstraint=eastwest;" parent="XZWh5QKXfQ9_2ZvwQQ3--12" vertex="1">
          <mxGeometry y="146" width="130" height="8" as="geometry" />
        </mxCell>
        <mxCell id="XZWh5QKXfQ9_2ZvwQQ3--18" value="- abriPorta(): void" style="text;align=left;verticalAlign=top;spacingLeft=4;spacingRight=4;overflow=hidden;rotatable=0;points=[[0,0.5],[1,0.5]];portConstraint=eastwest;" parent="XZWh5QKXfQ9_2ZvwQQ3--12" vertex="1">
          <mxGeometry y="154" width="130" height="26" as="geometry" />
        </mxCell>
        <mxCell id="XZWh5QKXfQ9_2ZvwQQ3--19" value="+ fecharPorta():void" style="text;align=left;verticalAlign=top;spacingLeft=4;spacingRight=4;overflow=hidden;rotatable=0;points=[[0,0.5],[1,0.5]];portConstraint=eastwest;" parent="XZWh5QKXfQ9_2ZvwQQ3--12" vertex="1">
          <mxGeometry y="180" width="130" height="26" as="geometry" />
        </mxCell>
        <mxCell id="88v7xjzpwn3SjRubBwqm-0" value="Celular" style="swimlane;fontStyle=2;align=center;verticalAlign=top;childLayout=stackLayout;horizontal=1;startSize=26;horizontalStack=0;resizeParent=1;resizeLast=0;collapsible=1;marginBottom=0;rounded=0;shadow=0;strokeWidth=1;" parent="WIyWlLk6GJQsqaUBKTNV-1" vertex="1">
          <mxGeometry x="32" y="-2250" width="130" height="210" as="geometry">
            <mxRectangle x="230" y="140" width="160" height="26" as="alternateBounds" />
          </mxGeometry>
        </mxCell>
        <mxCell id="88v7xjzpwn3SjRubBwqm-1" value="- nome: String" style="text;align=left;verticalAlign=top;spacingLeft=4;spacingRight=4;overflow=hidden;rotatable=0;points=[[0,0.5],[1,0.5]];portConstraint=eastwest;" parent="88v7xjzpwn3SjRubBwqm-0" vertex="1">
          <mxGeometry y="26" width="130" height="26" as="geometry" />
        </mxCell>
        <mxCell id="88v7xjzpwn3SjRubBwqm-2" value="- modelo : String" style="text;align=left;verticalAlign=top;spacingLeft=4;spacingRight=4;overflow=hidden;rotatable=0;points=[[0,0.5],[1,0.5]];portConstraint=eastwest;rounded=0;shadow=0;html=0;" parent="88v7xjzpwn3SjRubBwqm-0" vertex="1">
          <mxGeometry y="52" width="130" height="26" as="geometry" />
        </mxCell>
        <mxCell id="88v7xjzpwn3SjRubBwqm-3" value="- marca : String" style="text;align=left;verticalAlign=top;spacingLeft=4;spacingRight=4;overflow=hidden;rotatable=0;points=[[0,0.5],[1,0.5]];portConstraint=eastwest;rounded=0;shadow=0;html=0;" parent="88v7xjzpwn3SjRubBwqm-0" vertex="1">
          <mxGeometry y="78" width="130" height="32" as="geometry" />
        </mxCell>
        <mxCell id="88v7xjzpwn3SjRubBwqm-5" value="" style="line;html=1;strokeWidth=1;align=left;verticalAlign=middle;spacingTop=-1;spacingLeft=3;spacingRight=3;rotatable=0;labelPosition=right;points=[];portConstraint=eastwest;" parent="88v7xjzpwn3SjRubBwqm-0" vertex="1">
          <mxGeometry y="110" width="130" height="8" as="geometry" />
        </mxCell>
        <mxCell id="88v7xjzpwn3SjRubBwqm-6" value="+ fazerLigacao() : void" style="text;align=left;verticalAlign=top;spacingLeft=4;spacingRight=4;overflow=hidden;rotatable=0;points=[[0,0.5],[1,0.5]];portConstraint=eastwest;" parent="88v7xjzpwn3SjRubBwqm-0" vertex="1">
          <mxGeometry y="118" width="130" height="26" as="geometry" />
        </mxCell>
        <mxCell id="88v7xjzpwn3SjRubBwqm-7" value="+ tocarMusica() : void" style="text;align=left;verticalAlign=top;spacingLeft=4;spacingRight=4;overflow=hidden;rotatable=0;points=[[0,0.5],[1,0.5]];portConstraint=eastwest;" parent="88v7xjzpwn3SjRubBwqm-0" vertex="1">
          <mxGeometry y="144" width="130" height="26" as="geometry" />
        </mxCell>
        <mxCell id="88v7xjzpwn3SjRubBwqm-8" value="+ instalarApp() : void" style="text;align=left;verticalAlign=top;spacingLeft=4;spacingRight=4;overflow=hidden;rotatable=0;points=[[0,0.5],[1,0.5]];portConstraint=eastwest;" parent="88v7xjzpwn3SjRubBwqm-0" vertex="1">
          <mxGeometry y="170" width="130" height="26" as="geometry" />
        </mxCell>
        <mxCell id="88v7xjzpwn3SjRubBwqm-9" value="Computador" style="swimlane;fontStyle=2;align=center;verticalAlign=top;childLayout=stackLayout;horizontal=1;startSize=26;horizontalStack=0;resizeParent=1;resizeLast=0;collapsible=1;marginBottom=0;rounded=0;shadow=0;strokeWidth=1;" parent="WIyWlLk6GJQsqaUBKTNV-1" vertex="1">
          <mxGeometry x="172" y="-2250" width="150" height="210" as="geometry">
            <mxRectangle x="230" y="140" width="160" height="26" as="alternateBounds" />
          </mxGeometry>
        </mxCell>
        <mxCell id="88v7xjzpwn3SjRubBwqm-10" value="- nome: String" style="text;align=left;verticalAlign=top;spacingLeft=4;spacingRight=4;overflow=hidden;rotatable=0;points=[[0,0.5],[1,0.5]];portConstraint=eastwest;" parent="88v7xjzpwn3SjRubBwqm-9" vertex="1">
          <mxGeometry y="26" width="150" height="26" as="geometry" />
        </mxCell>
        <mxCell id="88v7xjzpwn3SjRubBwqm-11" value="- modelo : String" style="text;align=left;verticalAlign=top;spacingLeft=4;spacingRight=4;overflow=hidden;rotatable=0;points=[[0,0.5],[1,0.5]];portConstraint=eastwest;rounded=0;shadow=0;html=0;" parent="88v7xjzpwn3SjRubBwqm-9" vertex="1">
          <mxGeometry y="52" width="150" height="26" as="geometry" />
        </mxCell>
        <mxCell id="88v7xjzpwn3SjRubBwqm-12" value="- processador : String" style="text;align=left;verticalAlign=top;spacingLeft=4;spacingRight=4;overflow=hidden;rotatable=0;points=[[0,0.5],[1,0.5]];portConstraint=eastwest;rounded=0;shadow=0;html=0;" parent="88v7xjzpwn3SjRubBwqm-9" vertex="1">
          <mxGeometry y="78" width="150" height="32" as="geometry" />
        </mxCell>
        <mxCell id="88v7xjzpwn3SjRubBwqm-13" value="" style="line;html=1;strokeWidth=1;align=left;verticalAlign=middle;spacingTop=-1;spacingLeft=3;spacingRight=3;rotatable=0;labelPosition=right;points=[];portConstraint=eastwest;" parent="88v7xjzpwn3SjRubBwqm-9" vertex="1">
          <mxGeometry y="110" width="150" height="8" as="geometry" />
        </mxCell>
        <mxCell id="88v7xjzpwn3SjRubBwqm-14" value="+ ligarPc() : void" style="text;align=left;verticalAlign=top;spacingLeft=4;spacingRight=4;overflow=hidden;rotatable=0;points=[[0,0.5],[1,0.5]];portConstraint=eastwest;" parent="88v7xjzpwn3SjRubBwqm-9" vertex="1">
          <mxGeometry y="118" width="150" height="26" as="geometry" />
        </mxCell>
        <mxCell id="88v7xjzpwn3SjRubBwqm-15" value="+ desligarPc() : void" style="text;align=left;verticalAlign=top;spacingLeft=4;spacingRight=4;overflow=hidden;rotatable=0;points=[[0,0.5],[1,0.5]];portConstraint=eastwest;" parent="88v7xjzpwn3SjRubBwqm-9" vertex="1">
          <mxGeometry y="144" width="150" height="26" as="geometry" />
        </mxCell>
        <mxCell id="88v7xjzpwn3SjRubBwqm-16" value="+ navegarInternet() : void" style="text;align=left;verticalAlign=top;spacingLeft=4;spacingRight=4;overflow=hidden;rotatable=0;points=[[0,0.5],[1,0.5]];portConstraint=eastwest;" parent="88v7xjzpwn3SjRubBwqm-9" vertex="1">
          <mxGeometry y="170" width="150" height="26" as="geometry" />
        </mxCell>
        <mxCell id="88v7xjzpwn3SjRubBwqm-17" value="ContaBancaria" style="swimlane;fontStyle=2;align=center;verticalAlign=top;childLayout=stackLayout;horizontal=1;startSize=26;horizontalStack=0;resizeParent=1;resizeLast=0;collapsible=1;marginBottom=0;rounded=0;shadow=0;strokeWidth=1;" parent="WIyWlLk6GJQsqaUBKTNV-1" vertex="1">
          <mxGeometry x="332" y="-2250" width="140" height="210" as="geometry">
            <mxRectangle x="230" y="140" width="160" height="26" as="alternateBounds" />
          </mxGeometry>
        </mxCell>
        <mxCell id="88v7xjzpwn3SjRubBwqm-18" value="- titular: String" style="text;align=left;verticalAlign=top;spacingLeft=4;spacingRight=4;overflow=hidden;rotatable=0;points=[[0,0.5],[1,0.5]];portConstraint=eastwest;" parent="88v7xjzpwn3SjRubBwqm-17" vertex="1">
          <mxGeometry y="26" width="140" height="26" as="geometry" />
        </mxCell>
        <mxCell id="88v7xjzpwn3SjRubBwqm-19" value="- numero : int" style="text;align=left;verticalAlign=top;spacingLeft=4;spacingRight=4;overflow=hidden;rotatable=0;points=[[0,0.5],[1,0.5]];portConstraint=eastwest;rounded=0;shadow=0;html=0;" parent="88v7xjzpwn3SjRubBwqm-17" vertex="1">
          <mxGeometry y="52" width="140" height="26" as="geometry" />
        </mxCell>
        <mxCell id="88v7xjzpwn3SjRubBwqm-20" value="- saldo : double" style="text;align=left;verticalAlign=top;spacingLeft=4;spacingRight=4;overflow=hidden;rotatable=0;points=[[0,0.5],[1,0.5]];portConstraint=eastwest;rounded=0;shadow=0;html=0;" parent="88v7xjzpwn3SjRubBwqm-17" vertex="1">
          <mxGeometry y="78" width="140" height="32" as="geometry" />
        </mxCell>
        <mxCell id="88v7xjzpwn3SjRubBwqm-21" value="" style="line;html=1;strokeWidth=1;align=left;verticalAlign=middle;spacingTop=-1;spacingLeft=3;spacingRight=3;rotatable=0;labelPosition=right;points=[];portConstraint=eastwest;" parent="88v7xjzpwn3SjRubBwqm-17" vertex="1">
          <mxGeometry y="110" width="140" height="8" as="geometry" />
        </mxCell>
        <mxCell id="88v7xjzpwn3SjRubBwqm-22" value="+ depositar() : double" style="text;align=left;verticalAlign=top;spacingLeft=4;spacingRight=4;overflow=hidden;rotatable=0;points=[[0,0.5],[1,0.5]];portConstraint=eastwest;" parent="88v7xjzpwn3SjRubBwqm-17" vertex="1">
          <mxGeometry y="118" width="140" height="26" as="geometry" />
        </mxCell>
        <mxCell id="88v7xjzpwn3SjRubBwqm-23" value="+ sacar() : double" style="text;align=left;verticalAlign=top;spacingLeft=4;spacingRight=4;overflow=hidden;rotatable=0;points=[[0,0.5],[1,0.5]];portConstraint=eastwest;" parent="88v7xjzpwn3SjRubBwqm-17" vertex="1">
          <mxGeometry y="144" width="140" height="26" as="geometry" />
        </mxCell>
        <mxCell id="88v7xjzpwn3SjRubBwqm-24" value="+ consultarSaldo(): void" style="text;align=left;verticalAlign=top;spacingLeft=4;spacingRight=4;overflow=hidden;rotatable=0;points=[[0,0.5],[1,0.5]];portConstraint=eastwest;" parent="88v7xjzpwn3SjRubBwqm-17" vertex="1">
          <mxGeometry y="170" width="140" height="26" as="geometry" />
        </mxCell>
        <mxCell id="88v7xjzpwn3SjRubBwqm-25" value="Flor" style="swimlane;fontStyle=2;align=center;verticalAlign=top;childLayout=stackLayout;horizontal=1;startSize=26;horizontalStack=0;resizeParent=1;resizeLast=0;collapsible=1;marginBottom=0;rounded=0;shadow=0;strokeWidth=1;" parent="WIyWlLk6GJQsqaUBKTNV-1" vertex="1">
          <mxGeometry x="500" y="-2020" width="150" height="210" as="geometry">
            <mxRectangle x="230" y="140" width="160" height="26" as="alternateBounds" />
          </mxGeometry>
        </mxCell>
        <mxCell id="88v7xjzpwn3SjRubBwqm-26" value="- nome: String" style="text;align=left;verticalAlign=top;spacingLeft=4;spacingRight=4;overflow=hidden;rotatable=0;points=[[0,0.5],[1,0.5]];portConstraint=eastwest;" parent="88v7xjzpwn3SjRubBwqm-25" vertex="1">
          <mxGeometry y="26" width="150" height="26" as="geometry" />
        </mxCell>
        <mxCell id="88v7xjzpwn3SjRubBwqm-27" value="- cor : String" style="text;align=left;verticalAlign=top;spacingLeft=4;spacingRight=4;overflow=hidden;rotatable=0;points=[[0,0.5],[1,0.5]];portConstraint=eastwest;rounded=0;shadow=0;html=0;" parent="88v7xjzpwn3SjRubBwqm-25" vertex="1">
          <mxGeometry y="52" width="150" height="26" as="geometry" />
        </mxCell>
        <mxCell id="88v7xjzpwn3SjRubBwqm-29" value="" style="line;html=1;strokeWidth=1;align=left;verticalAlign=middle;spacingTop=-1;spacingLeft=3;spacingRight=3;rotatable=0;labelPosition=right;points=[];portConstraint=eastwest;" parent="88v7xjzpwn3SjRubBwqm-25" vertex="1">
          <mxGeometry y="78" width="150" height="8" as="geometry" />
        </mxCell>
        <mxCell id="88v7xjzpwn3SjRubBwqm-30" value="+ exalarPerfume() : void" style="text;align=left;verticalAlign=top;spacingLeft=4;spacingRight=4;overflow=hidden;rotatable=0;points=[[0,0.5],[1,0.5]];portConstraint=eastwest;" parent="88v7xjzpwn3SjRubBwqm-25" vertex="1">
          <mxGeometry y="86" width="150" height="26" as="geometry" />
        </mxCell>
        <mxCell id="88v7xjzpwn3SjRubBwqm-35" value="Pessoa" style="swimlane;fontStyle=2;align=center;verticalAlign=top;childLayout=stackLayout;horizontal=1;startSize=26;horizontalStack=0;resizeParent=1;resizeLast=0;collapsible=1;marginBottom=0;rounded=0;shadow=0;strokeWidth=1;" parent="WIyWlLk6GJQsqaUBKTNV-1" vertex="1">
          <mxGeometry x="32" y="-2020" width="130" height="210" as="geometry">
            <mxRectangle x="230" y="140" width="160" height="26" as="alternateBounds" />
          </mxGeometry>
        </mxCell>
        <mxCell id="88v7xjzpwn3SjRubBwqm-36" value="- nome: String" style="text;align=left;verticalAlign=top;spacingLeft=4;spacingRight=4;overflow=hidden;rotatable=0;points=[[0,0.5],[1,0.5]];portConstraint=eastwest;" parent="88v7xjzpwn3SjRubBwqm-35" vertex="1">
          <mxGeometry y="26" width="130" height="26" as="geometry" />
        </mxCell>
        <mxCell id="88v7xjzpwn3SjRubBwqm-37" value="- idade : int" style="text;align=left;verticalAlign=top;spacingLeft=4;spacingRight=4;overflow=hidden;rotatable=0;points=[[0,0.5],[1,0.5]];portConstraint=eastwest;rounded=0;shadow=0;html=0;" parent="88v7xjzpwn3SjRubBwqm-35" vertex="1">
          <mxGeometry y="52" width="130" height="26" as="geometry" />
        </mxCell>
        <mxCell id="88v7xjzpwn3SjRubBwqm-38" value="- altura : double" style="text;align=left;verticalAlign=top;spacingLeft=4;spacingRight=4;overflow=hidden;rotatable=0;points=[[0,0.5],[1,0.5]];portConstraint=eastwest;rounded=0;shadow=0;html=0;" parent="88v7xjzpwn3SjRubBwqm-35" vertex="1">
          <mxGeometry y="78" width="130" height="32" as="geometry" />
        </mxCell>
        <mxCell id="88v7xjzpwn3SjRubBwqm-39" value="" style="line;html=1;strokeWidth=1;align=left;verticalAlign=middle;spacingTop=-1;spacingLeft=3;spacingRight=3;rotatable=0;labelPosition=right;points=[];portConstraint=eastwest;" parent="88v7xjzpwn3SjRubBwqm-35" vertex="1">
          <mxGeometry y="110" width="130" height="8" as="geometry" />
        </mxCell>
        <mxCell id="88v7xjzpwn3SjRubBwqm-40" value="+ andar() : void" style="text;align=left;verticalAlign=top;spacingLeft=4;spacingRight=4;overflow=hidden;rotatable=0;points=[[0,0.5],[1,0.5]];portConstraint=eastwest;" parent="88v7xjzpwn3SjRubBwqm-35" vertex="1">
          <mxGeometry y="118" width="130" height="26" as="geometry" />
        </mxCell>
        <mxCell id="88v7xjzpwn3SjRubBwqm-41" value="+ comer() : void" style="text;align=left;verticalAlign=top;spacingLeft=4;spacingRight=4;overflow=hidden;rotatable=0;points=[[0,0.5],[1,0.5]];portConstraint=eastwest;" parent="88v7xjzpwn3SjRubBwqm-35" vertex="1">
          <mxGeometry y="144" width="130" height="26" as="geometry" />
        </mxCell>
        <mxCell id="88v7xjzpwn3SjRubBwqm-42" value="+ trabalhar() : void" style="text;align=left;verticalAlign=top;spacingLeft=4;spacingRight=4;overflow=hidden;rotatable=0;points=[[0,0.5],[1,0.5]];portConstraint=eastwest;" parent="88v7xjzpwn3SjRubBwqm-35" vertex="1">
          <mxGeometry y="170" width="130" height="26" as="geometry" />
        </mxCell>
        <mxCell id="88v7xjzpwn3SjRubBwqm-43" value="Time" style="swimlane;fontStyle=2;align=center;verticalAlign=top;childLayout=stackLayout;horizontal=1;startSize=26;horizontalStack=0;resizeParent=1;resizeLast=0;collapsible=1;marginBottom=0;rounded=0;shadow=0;strokeWidth=1;" parent="WIyWlLk6GJQsqaUBKTNV-1" vertex="1">
          <mxGeometry x="172" y="-2020" width="150" height="210" as="geometry">
            <mxRectangle x="230" y="140" width="160" height="26" as="alternateBounds" />
          </mxGeometry>
        </mxCell>
        <mxCell id="88v7xjzpwn3SjRubBwqm-44" value="- nome: String" style="text;align=left;verticalAlign=top;spacingLeft=4;spacingRight=4;overflow=hidden;rotatable=0;points=[[0,0.5],[1,0.5]];portConstraint=eastwest;" parent="88v7xjzpwn3SjRubBwqm-43" vertex="1">
          <mxGeometry y="26" width="150" height="26" as="geometry" />
        </mxCell>
        <mxCell id="88v7xjzpwn3SjRubBwqm-45" value="- estado : String" style="text;align=left;verticalAlign=top;spacingLeft=4;spacingRight=4;overflow=hidden;rotatable=0;points=[[0,0.5],[1,0.5]];portConstraint=eastwest;rounded=0;shadow=0;html=0;" parent="88v7xjzpwn3SjRubBwqm-43" vertex="1">
          <mxGeometry y="52" width="150" height="26" as="geometry" />
        </mxCell>
        <mxCell id="88v7xjzpwn3SjRubBwqm-46" value="- tituloMundial : int" style="text;align=left;verticalAlign=top;spacingLeft=4;spacingRight=4;overflow=hidden;rotatable=0;points=[[0,0.5],[1,0.5]];portConstraint=eastwest;rounded=0;shadow=0;html=0;" parent="88v7xjzpwn3SjRubBwqm-43" vertex="1">
          <mxGeometry y="78" width="150" height="32" as="geometry" />
        </mxCell>
        <mxCell id="88v7xjzpwn3SjRubBwqm-47" value="" style="line;html=1;strokeWidth=1;align=left;verticalAlign=middle;spacingTop=-1;spacingLeft=3;spacingRight=3;rotatable=0;labelPosition=right;points=[];portConstraint=eastwest;" parent="88v7xjzpwn3SjRubBwqm-43" vertex="1">
          <mxGeometry y="110" width="150" height="8" as="geometry" />
        </mxCell>
        <mxCell id="88v7xjzpwn3SjRubBwqm-48" value="+ comemorarTitulo() : void" style="text;align=left;verticalAlign=top;spacingLeft=4;spacingRight=4;overflow=hidden;rotatable=0;points=[[0,0.5],[1,0.5]];portConstraint=eastwest;" parent="88v7xjzpwn3SjRubBwqm-43" vertex="1">
          <mxGeometry y="118" width="150" height="26" as="geometry" />
        </mxCell>
        <mxCell id="88v7xjzpwn3SjRubBwqm-49" value="+ fazerGol() : void" style="text;align=left;verticalAlign=top;spacingLeft=4;spacingRight=4;overflow=hidden;rotatable=0;points=[[0,0.5],[1,0.5]];portConstraint=eastwest;" parent="88v7xjzpwn3SjRubBwqm-43" vertex="1">
          <mxGeometry y="144" width="150" height="26" as="geometry" />
        </mxCell>
        <mxCell id="88v7xjzpwn3SjRubBwqm-51" value="InstrumentoMusical" style="swimlane;fontStyle=2;align=center;verticalAlign=top;childLayout=stackLayout;horizontal=1;startSize=26;horizontalStack=0;resizeParent=1;resizeLast=0;collapsible=1;marginBottom=0;rounded=0;shadow=0;strokeWidth=1;" parent="WIyWlLk6GJQsqaUBKTNV-1" vertex="1">
          <mxGeometry x="332" y="-2020" width="140" height="210" as="geometry">
            <mxRectangle x="230" y="140" width="160" height="26" as="alternateBounds" />
          </mxGeometry>
        </mxCell>
        <mxCell id="88v7xjzpwn3SjRubBwqm-52" value="- nome: String" style="text;align=left;verticalAlign=top;spacingLeft=4;spacingRight=4;overflow=hidden;rotatable=0;points=[[0,0.5],[1,0.5]];portConstraint=eastwest;" parent="88v7xjzpwn3SjRubBwqm-51" vertex="1">
          <mxGeometry y="26" width="140" height="26" as="geometry" />
        </mxCell>
        <mxCell id="88v7xjzpwn3SjRubBwqm-59" value="- naipe: String" style="text;align=left;verticalAlign=top;spacingLeft=4;spacingRight=4;overflow=hidden;rotatable=0;points=[[0,0.5],[1,0.5]];portConstraint=eastwest;" parent="88v7xjzpwn3SjRubBwqm-51" vertex="1">
          <mxGeometry y="52" width="140" height="26" as="geometry" />
        </mxCell>
        <mxCell id="88v7xjzpwn3SjRubBwqm-55" value="" style="line;html=1;strokeWidth=1;align=left;verticalAlign=middle;spacingTop=-1;spacingLeft=3;spacingRight=3;rotatable=0;labelPosition=right;points=[];portConstraint=eastwest;" parent="88v7xjzpwn3SjRubBwqm-51" vertex="1">
          <mxGeometry y="78" width="140" height="8" as="geometry" />
        </mxCell>
        <mxCell id="88v7xjzpwn3SjRubBwqm-56" value="+ tocar() : void" style="text;align=left;verticalAlign=top;spacingLeft=4;spacingRight=4;overflow=hidden;rotatable=0;points=[[0,0.5],[1,0.5]];portConstraint=eastwest;" parent="88v7xjzpwn3SjRubBwqm-51" vertex="1">
          <mxGeometry y="86" width="140" height="26" as="geometry" />
        </mxCell>
      </root>
    </mxGraphModel>
  </diagram>
</mxfile>
